HIERARCHY
ROOT root
{
	OFFSET 0.000000 0.000000 0.000000
	CHANNELS 6 Xposition Yposition Zposition Zrotation Yrotation Xrotation
	JOINT lhip
	{
		OFFSET 0.058581 -0.082280 -0.017664
		CHANNELS 3 Zrotation Yrotation Xrotation
		JOINT lknee
		{
			OFFSET 0.043451 -0.386469 0.008037
			CHANNELS 3 Zrotation Yrotation Xrotation
			JOINT lankle
			{
				OFFSET -0.014790 -0.426874 -0.037428
				CHANNELS 3 Zrotation Yrotation Xrotation
				JOINT ltoe
				{
					OFFSET 0.041054 -0.060286 0.122042
					CHANNELS 3 Zrotation Yrotation Xrotation
					End Site
					{
						OFFSET 0.000000 0.000000 0.000000
					}
				}
			}
		}
	}
	JOINT rhip
	{
		OFFSET -0.060310 -0.090513 -0.013543
		CHANNELS 3 Zrotation Yrotation Xrotation
		JOINT rknee
		{
			OFFSET -0.043257 -0.383688 -0.004843
			CHANNELS 3 Zrotation Yrotation Xrotation
			JOINT rankle
			{
				OFFSET 0.019056 -0.420046 -0.034562
				CHANNELS 3 Zrotation Yrotation Xrotation
				JOINT rtoe
				{
					OFFSET -0.034840 -0.062106 0.130323
					CHANNELS 3 Zrotation Yrotation Xrotation
					End Site
					{
						OFFSET 0.000000 0.000000 0.000000
					}
				}
			}
		}
	}
	JOINT lowerback
	{
		OFFSET 0.004439 0.124404 -0.038385
		CHANNELS 3 Zrotation Yrotation Xrotation
		JOINT upperback
		{
			OFFSET 0.004488 0.137956 0.026820
			CHANNELS 3 Zrotation Yrotation Xrotation
			JOINT chest
			{
				OFFSET -0.002265 0.056032 0.002855
				CHANNELS 3 Zrotation Yrotation Xrotation
				JOINT lowerneck
				{
					OFFSET -0.013390 0.211636 -0.033468
					CHANNELS 3 Zrotation Yrotation Xrotation
					JOINT upperneck
					{
						OFFSET 0.010113 0.088937 0.050410
						CHANNELS 3 Zrotation Yrotation Xrotation
						End Site
						{
							OFFSET 0.000000 0.000000 0.000000
						}
					}
				}
				JOINT lclavicle
				{
					OFFSET 0.071702 0.114000 -0.018898
					CHANNELS 3 Zrotation Yrotation Xrotation
					JOINT lshoulder
					{
						OFFSET 0.122921 0.045205 -0.019046
						CHANNELS 3 Zrotation Yrotation Xrotation
						JOINT lelbow
						{
							OFFSET 0.255332 -0.015649 -0.022946
							CHANNELS 3 Zrotation Yrotation Xrotation
							JOINT lwrist
							{
								OFFSET 0.265709 0.012698 -0.007375
								CHANNELS 3 Zrotation Yrotation Xrotation
								End Site
								{
									OFFSET 0.000000 0.000000 0.000000
								}
							}
						}
					}
				}
				JOINT rclavicle
				{
					OFFSET -0.082954 0.112472 -0.023707
					CHANNELS 3 Zrotation Yrotation Xrotation
					JOINT rshoulder
					{
						OFFSET -0.113228 0.046853 -0.008472
						CHANNELS 3 Zrotation Yrotation Xrotation
						JOINT relbow
						{
							OFFSET -0.260127 -0.014369 -0.031269
							CHANNELS 3 Zrotation Yrotation Xrotation
							JOINT rwrist
							{
								OFFSET -0.269108 0.006794 -0.006027
								CHANNELS 3 Zrotation Yrotation Xrotation
								End Site
								{
									OFFSET 0.000000 0.000000 0.000000
								}
							}
						}
					}
				}
			}
		}
	}
}
MOTION
Frames: 11
Frame Time: 0.033333
-0.299136 0.581969 0.962938 3.858225 0.595821 94.807526 3.707180 0.692490 -26.533861 -9.208592 6.332728 65.853453 -3.730487 4.770301 -6.088501 0.000000 -0.000000 0.000000 -3.903975 5.566276 -53.883736 -0.616829 -7.818480 47.707497 6.065112 -2.924741 9.047386 0.000000 -0.000000 0.000000 0.819278 -6.120319 46.377757 -0.384402 -0.786292 -3.128463 0.953848 -2.334421 3.202078 -2.638986 1.771612 -9.920352 6.196791 7.749654 -11.503781 -31.190558 -9.191517 4.087737 -49.595289 -3.049575 5.858536 17.019715 -37.342107 -13.926481 2.746060 -4.257989 -8.102624 24.793116 11.141001 3.976076 55.186190 1.881358 11.735165 -21.758337 45.556263 -13.353938 4.077983 3.712291 -9.236602 
-0.296063 0.619565 0.962323 4.018436 0.341122 95.309284 3.363901 0.653240 -28.221267 -9.473683 6.898676 64.175718 -3.260954 4.503210 -9.333453 0.000000 -0.000000 0.000000 -4.498163 5.296078 -54.484410 -1.187632 -7.389710 42.904063 7.892913 -3.093023 13.902599 0.000000 -0.000000 0.000000 0.785997 -5.871688 47.116626 -0.454614 -0.948211 -3.672627 1.095108 -2.294600 3.355496 -2.732468 1.524670 -10.478446 6.383936 7.791914 -11.300062 -31.242247 -9.333706 4.174698 -49.342653 -3.727797 5.869599 17.131062 -37.516577 -14.072482 2.674229 -4.685759 -7.565841 24.746413 11.226310 3.965593 55.208672 2.386077 12.311656 -22.423011 45.629993 -14.066782 4.206550 3.745729 -9.314920 
-0.292627 0.656881 0.962546 3.856257 -0.098661 95.717859 3.224435 0.511918 -30.761588 -9.178426 8.575351 63.442966 -2.984485 3.948447 -10.140561 0.000000 -0.000000 0.000000 -5.432911 4.677106 -54.839416 -1.552811 -7.446528 37.799478 10.523059 -2.909578 20.563290 0.000000 -0.000000 0.000000 0.701595 -5.227556 48.059345 -0.572501 -1.202469 -4.214900 1.229093 -2.297350 3.271210 -2.842948 1.048782 -10.688369 6.845523 7.956095 -11.245615 -31.357052 -9.478386 4.348072 -49.026595 -4.321961 6.012928 17.187566 -37.610789 -14.395031 2.562089 -5.165716 -6.777076 24.780772 11.178955 3.944420 55.132065 2.924528 12.836119 -22.923073 45.411636 -15.034121 4.226822 3.742159 -9.210864 
-0.289275 0.691590 0.961759 3.413678 -0.297008 95.813121 3.293070 0.739393 -32.984241 -9.176604 10.182085 62.950759 -2.516477 3.912571 -10.557068 0.000000 -0.000000 0.000000 -6.182357 3.920090 -55.149949 -1.057008 -7.438133 35.000127 12.683360 -2.360925 23.175686 0.000000 -0.000000 0.000000 0.758945 -4.636758 48.865637 -0.740097 -1.239579 -4.624716 1.242016 -2.182198 3.232601 -2.947565 0.850568 -10.820967 7.059458 7.811391 -10.983771 -31.429701 -9.535855 4.341563 -48.891354 -4.536375 6.123185 17.125611 -37.751260 -14.667464 2.758611 -5.362077 -6.222353 24.855774 11.176570 4.085402 55.000187 3.190126 12.896807 -23.207998 45.257807 -15.800700 4.198944 3.752600 -8.861313 
-0.286850 0.722972 0.959096 2.917767 -0.103823 95.432310 3.442795 1.281097 -34.472477 -9.475727 10.860074 62.674165 -2.097804 4.084088 -11.585093 0.000000 -0.000000 0.000000 -6.445193 3.437212 -55.892857 -0.612181 -8.239393 37.997350 12.849067 -1.099858 15.449007 0.000000 -0.000000 0.000000 0.720298 -4.331612 49.604127 -0.820464 -1.015475 -4.812308 1.203236 -2.000921 3.220049 -2.628844 1.634080 -10.911262 6.655182 6.924558 -10.710428 -31.306281 -9.342855 4.088713 -48.994294 -4.108922 6.170279 17.018557 -38.148442 -14.379477 3.010989 -5.265532 -6.685249 25.130686 11.320875 4.179711 54.596095 3.176486 12.399474 -22.622899 45.152677 -15.206532 4.081687 3.908979 -8.491083 
-0.285383 0.752651 0.956233 2.568976 0.133840 94.872557 3.604412 1.659348 -35.878747 -9.634055 11.428571 62.661959 -1.872491 4.619821 -12.069626 0.000000 -0.000000 0.000000 -6.752852 3.167291 -56.683610 -0.408032 -9.586500 44.954405 11.567791 0.471638 4.273728 0.000000 -0.000000 0.000000 0.576836 -4.163312 50.387112 -0.757265 -0.864515 -4.949340 1.104352 -1.885913 3.170824 -2.064882 2.798343 -10.954473 6.068629 5.838936 -10.741971 -31.244861 -9.340273 3.914350 -48.858246 -3.292609 6.143117 16.852019 -38.365396 -14.008177 3.210288 -5.098774 -7.552600 25.559327 11.526938 4.216263 54.156300 3.104759 11.663845 -21.747480 44.940728 -14.068761 3.775090 4.061391 -8.256880 
-0.284351 0.780894 0.954182 2.537417 0.232454 94.320457 3.560176 1.800881 -37.442562 -9.466811 12.022073 62.732251 -1.408629 5.306445 -11.545915 0.000000 -0.000000 0.000000 -6.794029 2.643608 -57.385421 -0.421235 -10.074460 53.849552 9.685336 0.441016 -3.295138 0.000000 -0.000000 0.000000 0.414346 -4.144677 51.102003 -0.597510 -0.922188 -5.058527 1.019166 -1.865771 3.060802 -1.744261 3.239425 -10.925643 5.851941 5.547556 -10.900498 -31.372278 -9.647941 3.989959 -48.521824 -2.379793 5.849912 16.622604 -38.316726 -13.905424 3.604587 -4.709519 -8.089681 25.825363 11.972654 4.295496 53.994647 2.874808 10.982753 -21.376800 44.556125 -13.893152 3.737995 4.057333 -7.748151 
-0.283828 0.807654 0.953119 2.635038 0.327409 93.881866 3.467690 1.848019 -38.825005 -9.269756 12.346582 62.399970 -0.896709 5.746198 -10.823651 0.000000 -0.000000 0.000000 -6.520989 2.133227 -57.634111 -1.204146 -10.319498 63.474452 7.673930 -1.017166 -7.121478 0.000000 -0.000000 0.000000 0.353715 -4.158198 51.575006 -0.437393 -1.049630 -5.166422 0.960891 -1.911971 2.955151 -1.570406 3.112596 -10.730228 5.857267 5.772884 -11.058080 -31.539067 -9.967415 4.171694 -48.258965 -1.649102 5.384398 16.355908 -38.083990 -13.697801 3.945616 -4.195798 -8.533816 25.921819 12.432538 4.296640 53.972814 2.565583 10.515429 -21.140925 44.131409 -13.953838 3.717087 4.025598 -7.338656 
-0.283819 0.833841 0.952897 2.562013 0.416141 93.662896 3.608852 1.774673 -40.038554 -9.406055 12.651259 61.458778 -0.487783 6.036705 -10.093067 0.000000 -0.000000 0.000000 -6.462996 2.154983 -57.014974 -2.325482 -10.593788 72.615509 6.099526 -2.141770 -8.684516 0.000000 -0.000000 0.000000 0.286232 -4.048242 51.674329 -0.282856 -1.147635 -5.257105 0.880603 -1.908229 2.893620 -1.435743 2.982804 -10.462424 5.839265 5.948373 -11.085287 -31.676829 -10.284038 4.304280 -48.103583 -1.068413 5.035430 16.156270 -37.682028 -13.645395 3.942988 -3.806077 -8.897622 25.926439 12.703585 4.244016 54.000465 2.247572 10.244900 -20.974136 43.866206 -13.830572 3.769540 4.016987 -7.320638 
-0.284075 0.860528 0.953586 2.361200 0.284830 93.765552 3.813746 1.299036 -41.215180 -9.661590 13.080276 59.930461 -0.157160 6.122961 -9.272588 0.000000 -0.000000 0.000000 -6.646470 2.457136 -55.515755 -2.709055 -10.440266 80.352211 5.366871 -1.860210 -7.998856 0.000000 -0.000000 0.000000 0.121985 -3.724301 51.345878 -0.080868 -1.377784 -5.076939 0.767360 -1.852308 2.698365 -1.360816 2.901403 -10.361153 5.850988 5.965484 -11.018375 -31.854068 -10.684094 4.358980 -47.962626 -0.545250 4.885781 16.183467 -37.326961 -14.087223 3.570289 -3.668616 -8.715523 25.940995 12.886059 4.152879 54.023222 1.925840 10.145081 -20.987115 43.673836 -13.968417 3.937693 3.966672 -7.299378 
-0.284480 0.887425 0.954829 2.019931 -0.128835 94.042565 3.883230 0.724590 -42.309465 -9.934927 13.547887 57.813563 0.189039 6.153450 -8.081475 0.000000 -0.000000 0.000000 -6.694792 2.628792 -53.252801 -2.174285 -9.698526 86.189921 5.513271 -0.865750 -4.086422 0.000000 -0.000000 0.000000 -0.197057 -3.137822 50.819789 0.105668 -1.717771 -4.792946 0.720676 -1.784557 2.483141 -1.451776 2.519001 -10.273988 5.990833 6.174974 -11.131261 -32.030291 -10.961087 4.315678 -47.920163 -0.141865 4.865483 16.269682 -37.267365 -14.517867 3.469072 -3.653951 -8.376899 25.816388 12.951126 3.931742 54.108746 1.603586 10.230874 -21.063997 43.553254 -14.322389 4.216662 3.876553 -7.241025 
